<svg width="206" height="36" viewBox="0 0 206 36" fill="none" xmlns="http://www.w3.org/2000/svg">
<path d="M0.352 35H8.848V23.192L11.728 20.168L21.616 35H31.504L17.584 14.456L30.736 0.679998H20.656L8.848 13.112V0.679998H0.352V35ZM40.3408 35H48.1648V23.96C48.1648 18.632 51.2368 16.28 56.0368 16.952H56.2288V10.232C55.8928 10.088 55.4128 10.04 54.6928 10.04C51.7168 10.04 49.7008 11.336 47.9728 14.264H47.8288V10.424H40.3408V35ZM77.247 35.72C80.367 35.72 82.863 34.904 84.927 33.464C87.087 31.976 88.527 29.864 89.055 27.656H81.423C80.751 29.192 79.407 30.104 77.343 30.104C74.127 30.104 72.303 28.04 71.823 24.728H89.487C89.535 19.736 88.095 15.464 85.167 12.776C83.055 10.856 80.271 9.704 76.767 9.704C69.279 9.704 64.143 15.32 64.143 22.664C64.143 30.104 69.135 35.72 77.247 35.72ZM71.871 20.072C72.399 17.144 73.935 15.272 76.911 15.272C79.455 15.272 81.279 17.144 81.567 20.072H71.871ZM106.354 35.624C110.05 35.624 112.21 34.328 113.65 32.264H113.746C113.938 33.512 114.178 34.472 114.562 35H122.146V34.664C121.474 34.232 121.282 33.128 121.282 31.16V18.776C121.282 15.704 120.274 13.304 118.162 11.768C116.386 10.424 113.89 9.752 110.194 9.752C102.754 9.752 99.2504 13.64 99.0584 18.2H106.258C106.498 16.136 107.746 15.032 110.242 15.032C112.594 15.032 113.602 16.088 113.602 17.672C113.602 19.352 111.97 19.832 107.362 20.408C102.274 21.08 97.9544 22.712 97.9544 28.136C97.9544 32.984 101.458 35.624 106.354 35.624ZM108.85 30.632C106.93 30.632 105.49 29.864 105.49 27.896C105.49 26.024 106.738 25.256 109.762 24.584C111.346 24.2 112.786 23.816 113.794 23.288V26.216C113.794 28.856 111.778 30.632 108.85 30.632ZM141.35 35.288C143.462 35.288 144.95 35.096 145.622 34.904V29.192C145.334 29.192 144.566 29.24 143.894 29.24C142.214 29.24 141.158 28.76 141.158 26.84V15.32H145.622V10.424H141.158V2.648H133.526V10.424H130.262V15.32H133.526V28.52C133.526 33.8 136.79 35.288 141.35 35.288ZM167.2 30.2C163.792 30.2 162.016 27.224 162.016 22.76C162.016 18.296 163.792 15.272 167.2 15.272C170.608 15.272 172.432 18.296 172.432 22.76C172.432 27.224 170.608 30.2 167.2 30.2ZM167.248 35.768C175.168 35.768 180.352 30.152 180.352 22.76C180.352 15.368 175.168 9.752 167.248 9.752C159.376 9.752 154.096 15.368 154.096 22.76C154.096 30.152 159.376 35.768 167.248 35.768ZM189.997 35H197.821V23.96C197.821 18.632 200.893 16.28 205.693 16.952H205.885V10.232C205.549 10.088 205.069 10.04 204.349 10.04C201.373 10.04 199.357 11.336 197.629 14.264H197.485V10.424H189.997V35Z" fill="black"/>
</svg>
